# xmcd
#
# Track frame offsets: 
#        150
#        27204
#        48579
#        73203
#        108330
#        124863
#        151098
#        176109
#        197349
#        217428
#
# Disc length: 3247 seconds
#
# Revision: 0
# Processed by: cddbd v1.5.2PL0 Copyright (c) Steve Scherf et al.
# Submitted via: ExactAudioCopy v1.0b3
#
DISCID=920cad0a
DTITLE=Phuong Dung - Hoa No Ve Dem
DYEAR=1996
DGENRE=
TTITLE0=Pho dem
TTITLE1=Tau dem nam cu
TTITLE2=Tim ca rung chieu
TTITLE3=Chuyen di ve sang
TTITLE4=Buc tam thu
TTITLE5=Mua dem ngoai o
TTITLE6=Neu doi khong co anh
TTITLE7=Hoa no ve dem
TTITLE8=Nhung dom mat hoa chau
TTITLE9=Chi co mot nguoi
EXTD=
EXTT0=
EXTT1=
EXTT2=
EXTT3=
EXTT4=
EXTT5=
EXTT6=
EXTT7=
EXTT8=
EXTT9=
PLAYORDER=
